<svg xmlns="http://www.w3.org/2000/svg" width="184" height="184" viewBox="0 0 184 184">
<text x="10" y="18" font-family="Arial, sans-serif" font-size="14" fill="#111827">( 8 )</text>
<path d="M 80,80 L 80.0,10.0 A 70,70 0 0,1 129.49747468305833,30.50252531694168 Z" fill="#CBD5E1" stroke="#94A3B8" />
<path d="M 80,80 L 129.49747468305833,30.50252531694168 A 70,70 0 0,1 150.0,80.0 Z" fill="#CBD5E1" stroke="#94A3B8" />
<path d="M 80,80 L 150.0,80.0 A 70,70 0 0,1 129.49747468305833,129.49747468305833 Z" fill="#CBD5E1" stroke="#94A3B8" />
<path d="M 80,80 L 129.49747468305833,129.49747468305833 A 70,70 0 0,1 80.0,150.0 Z" fill="#CBD5E1" stroke="#94A3B8" />
<path d="M 80,80 L 80.0,150.0 A 70,70 0 0,1 30.50252531694168,129.49747468305833 Z" fill="#CBD5E1" stroke="#94A3B8" />
<path d="M 80,80 L 30.50252531694168,129.49747468305833 A 70,70 0 0,1 10.0,80.00000000000001 Z" fill="white" stroke="#94A3B8" />
<path d="M 80,80 L 10.0,80.00000000000001 A 70,70 0 0,1 30.502525316941664,30.50252531694168 Z" fill="white" stroke="#94A3B8" />
<path d="M 80,80 L 30.502525316941664,30.50252531694168 A 70,70 0 0,1 79.99999999999999,10.0 Z" fill="white" stroke="#94A3B8" />
</svg>